


[center]


Release Brought to you by CrEwSaDe
                             

[img]http://i1179.photobucket.com/albums/x394/crewsade/Crazycook%20Screens/mmmm.jpg[/img]

******************************************************************************************************              

               **Martha.Marcy.May.Marlene.2011.LIMITED.BRRIP.X264.AAC.CrEwDe **

******************************************************************************************************

Encoder ..........: Crazycook                                                    
Video Codec.......: AVC
Video Bitrate.....: 764 kbs                             
Audio Codec.......: AAC                              
Audio Bitrate.....: 192 kbs, 6 channels                           
Resolution........: 720X304, 23.976 fps
Runtime...........: 1h 41mn                             
Release Date......: 05 Feb. 2012
Theatre Date......: 21 October 2011 (limited)
Language..........: English
Subtitles.........: n/a
IMDB Rating.......: 7.4 / 10
IMDb URL..........: http://www.imdb.com/title/tt1441326/

_______________________________________________________________________________

General

Unique ID                                : 223867846555582527256381827648857987519 (0xA86B610156E5F6298D7CFA6A6CFA59BF)
Complete name                            : D:\torrent data\Marth.Marcy.May.Marlene.2011.LIMIIED.BRRIP.X264.AC3.CrEwSaDe\Marth.Marcy.May.Marlene.2011.LIMITED.BRRIP.X264.AC3.CrEwSaDe.mkv
Format                                   : Matroska
Format version                           : Version 2
File size                                : 699 MiB
Duration                                 : 1h 41mn
Overall bit rate                         : 958 Kbps
Encoded date                             : UTC 2012-02-05 21:26:58
Writing application                      : mkvmerge v5.2.1 ('A Far Off Place') built on Jan  2 2012 23:21:10
Writing library                          : libebml v1.2.3 + libmatroska v1.3.0
________________________________________________________________________________

Video

ID                                       : 1
Format                                   : AVC
Format/Info                              : Advanced Video Codec
Format profile                           : High@L3.0
Format settings, CABAC                   : Yes
Format settings, ReFrames                : 5 frames
Codec ID                                 : V_MPEG4/ISO/AVC
Duration                                 : 1h 41mn
Bit rate                                 : 764 Kbps
Width                                    : 720 pixels
Height                                   : 304 pixels
Display aspect ratio                     : 2.35:1
Frame rate                               : 23.976 fps
Color space                              : YUV
Chroma subsampling                       : 4:2:0
Bit depth                                : 8 bits
Scan type                                : Progressive
Bits/(Pixel*Frame)                       : 0.146
Stream size                              : 545 MiB (78%)
Writing library                          : x264 core 120 r2146 bcd41db
Encoding settings                        : cabac=1 / ref=5 / deblock=1:-1:-1 / analyse=0x3:0x133 / me=umh / subme=6 / psy=1 / psy_rd=1.00:0.00 / mixed_ref=1 / me_range=16 / chroma_me=1 / trellis=2 / 8x8dct=1 / cqm=0 / deadzone=21,11 / fast_pskip=1 / chroma_qp_offset=-2 / threads=12 / sliced_threads=0 / nr=0 / decimate=1 / interlaced=0 / bluray_compat=0 / constrained_intra=0 / bframes=3 / b_pyramid=2 / b_adapt=2 / b_bias=0 / direct=3 / weightb=1 / open_gop=0 / weightp=2 / keyint=240 / keyint_min=23 / scenecut=40 / intra_refresh=0 / rc_lookahead=40 / rc=2pass / mbtree=1 / bitrate=764 / ratetol=1.0 / qcomp=0.60 / qpmin=10 / qpmax=51 / qpstep=4 / cplxblur=20.0 / qblur=0.5 / ip
_________________________________________________________________________________

Audio

ID                                       : 2
Format                                   : AC-3
Format/Info                              : Audio Coding 3
Mode extension                           : CM (complete main)
Codec ID                                 : A_AC3
Duration                                 : 1h 41mn
Bit rate mode                            : Constant
Bit rate                                 : 192 Kbps
Channel(s)                               : 6 channels
Channel positions                        : Front: L C R, Side: L R, LFE
Sampling rate                            : 48.0 KHz
Bit depth                                : 16 bits
Compression mode                         : Lossy
Stream size                              : 140 MiB (20%)
_________________________________________________________________________________

SOURCES:

VIDEO: Marth.Marcy.May.Marlene.2011.LIMITED.720p.BLuRay.x264-Counterfeit  Thanks
AUDIO: Marth.Marcy.May.Marlene.2011.LIMITED.720p.BLuRay.x264-Counterfeit  Thanks

_________________________________________________________________________________

Plot:

Haunted by painful memories and increasing paranoia, a damaged woman struggles to re-assimilate with her family after fleeing an abusive cult.
_________________________________________________________________________________


Screens:

[img]http://i1179.photobucket.com/albums/x394/crewsade/Crazycook%20Screens/vlcsnap-2012-02-05-22h32m36s233.png[/img]
[img]http://i1179.photobucket.com/albums/x394/crewsade/Crazycook%20Screens/vlcsnap-2012-02-05-22h33m34s64.png[/img]
[img]http://i1179.photobucket.com/albums/x394/crewsade/Crazycook%20Screens/vlcsnap-2012-02-05-22h33m40s129.png[/img]
[img]http://i1179.photobucket.com/albums/x394/crewsade/Crazycook%20Screens/vlcsnap-2012-02-05-22h33m44s173.png[/img]
[img]http://i1179.photobucket.com/albums/x394/crewsade/Crazycook%20Screens/vlcsnap-2012-02-05-22h33m52s238.png[/img][/center]